<?xml version="1.0" encoding="UTF-8"?>
<svg xmlns="http://www.w3.org/2000/svg" preserveAspectRatio="xMidYMid slice" viewBox="0 0 400 300">
<defs><linearGradient id="bg" x1="0" y1="0" x2="0" y2="1">
<stop offset="0%" stop-color="#101a30"/><stop offset="100%" stop-color="#060b16"/></linearGradient>
<radialGradient id="glow" cx="50%" cy="45%" r="60%">
<stop offset="0%" stop-color="#ffffff" stop-opacity=".16"/>
<stop offset="100%" stop-color="#ffffff" stop-opacity="0"/></radialGradient></defs>
<rect width="400" height="300" fill="url(#bg)"/><rect width="400" height="300" fill="url(#glow)"/>
<g transform="translate(200,150)">
<path     d="M-6 -6 L-96 -6 A90 90 0 0 1 -6 -96 Z" fill="#4fd8a6" opacity="1"/>
<path  d="M6 -6 L6 -96 A90 90 0 0 1 96 -6 Z"    fill="#ff5d5d" opacity=".55"/>
<path  d="M6 6 L96 6 A90 90 0 0 1 6 96 Z"       fill="#5bb8ff" opacity=".55"/>
<path  d="M-6 6 L-6 96 A90 90 0 0 1 -96 6 Z"    fill="#ffd166" opacity=".55"/>
<circle r="38" fill="#0b1220" stroke="#3a4a6b" stroke-width="3"/>
<circle cy="-6" r="9" fill="#b18cff"/>
<rect x="-16" y="10" width="32" height="4" rx="2" fill="#3a4a6b"/>
<rect x="-10" y="20" width="20" height="4" rx="2" fill="#2a3550"/>
</g>
</svg>
