<?xml version="1.0" encoding="UTF-8"?>
<svg preserveAspectRatio="xMidYMid slice" viewBox="0 0 400 300" xmlns="http://www.w3.org/2000/svg">
          <defs>
            <linearGradient id="youssefBg" x1="0" y1="0" x2="0" y2="1">
              <stop offset="0%" stop-color="#0a0a1a"/>
              <stop offset="60%" stop-color="#1a1230"/>
              <stop offset="100%" stop-color="#2a1a08"/>
            </linearGradient>
            <radialGradient id="youssefGlow" cx="50%" cy="35%" r="50%">
              <stop offset="0%" stop-color="#f0c040" stop-opacity=".3"/>
              <stop offset="100%" stop-color="transparent"/>
            </radialGradient>
          </defs>
          <rect width="400" height="300" fill="url(#youssefBg)"/>
          <rect width="400" height="300" fill="url(#youssefGlow)"/>
          <!-- 11 stars -->
          <circle cx="60" cy="40" r="3" fill="#f0c040" opacity=".9"/>
          <circle cx="100" cy="22" r="2.5" fill="#f0c040" opacity=".85"/>
          <circle cx="145" cy="50" r="2" fill="#f0c040" opacity=".8"/>
          <circle cx="180" cy="28" r="3" fill="#f0c040" opacity=".9"/>
          <circle cx="220" cy="45" r="2.5" fill="#f0c040" opacity=".85"/>
          <circle cx="255" cy="20" r="2" fill="#f0c040" opacity=".8"/>
          <circle cx="290" cy="55" r="2.5" fill="#f0c040" opacity=".85"/>
          <circle cx="325" cy="30" r="3" fill="#f0c040" opacity=".9"/>
          <circle cx="355" cy="50" r="2" fill="#f0c040" opacity=".8"/>
          <circle cx="40" cy="65" r="2.5" fill="#f0c040" opacity=".85"/>
          <circle cx="130" cy="70" r="2" fill="#f0c040" opacity=".8"/>
          <!-- Sun and Moon bowing -->
          <circle cx="320" cy="75" r="28" fill="#ffe8a0" opacity=".7"/>
          <circle cx="80" cy="80" r="22" fill="#ffe8a0" opacity=".6"/>
          <circle cx="92" cy="72" r="18" fill="#0a0a1a"/>
          <!-- Desert / Egypt ground -->
          <polygon points="0,260 60,220 140,240 220,210 310,230 400,215 400,300 0,300" fill="#c8a04a" opacity=".7"/>
          <polygon points="0,275 80,245 180,260 280,238 370,250 400,240 400,300 0,300" fill="#d4b060"/>
          <!-- Pyramids -->
          <polygon points="300,240 340,180 380,240" fill="#b89040" opacity=".6"/>
          <polygon points="260,240 290,195 320,240" fill="#a07830" opacity=".5"/>
          <!-- Youssef figure -->
          <g transform="translate(200,195)">
            <circle cx="0" cy="-14" r="30" fill="#f0c040" opacity=".12"/>
            <path d="M-22,10 Q-18,68 0,72 Q18,68 22,10 Z" fill="#5a2a7a"/>
            <line x1="-22" y1="14" x2="-50" y2="0" stroke="#5a2a7a" stroke-width="9" stroke-linecap="round"/>
            <line x1="22" y1="14" x2="50" y2="0" stroke="#5a2a7a" stroke-width="9" stroke-linecap="round"/>
            <circle cx="0" cy="-14" r="18" fill="#d4a57a"/>
            <circle cx="0" cy="-14" r="24" fill="none" stroke="#f0c040" stroke-width="1.5" opacity=".5"/>
            <path d="M-14,-28 Q0,-48 14,-28 L16,-10 Q0,-6 -16,-10 Z" fill="#1a1230"/>
            <circle cx="-6" cy="-15" r="3" fill="#f0c040" opacity=".8"/>
            <circle cx="6" cy="-15" r="3" fill="#f0c040" opacity=".8"/>
          </g>
          <!-- Well in background -->
          <g transform="translate(100,230)">
            <rect x="-18" y="-20" width="36" height="20" rx="3" fill="#8b5e3c" opacity=".7"/>
            <ellipse cx="0" cy="-20" rx="20" ry="8" fill="#6b4020" opacity=".8"/>
            <ellipse cx="0" cy="-20" rx="14" ry="5" fill="#020818" opacity=".9"/>
          </g>
        </svg>
